<svg width="130" height="130" viewBox="0 0 130 130" fill="none" xmlns="http://www.w3.org/2000/svg">
<circle cx="65" cy="65" r="65" fill="black"></circle>
<path d="M28.3123 40.9135L20.1875 34.889L21.0909 33.6656C21.4932 33.1207 21.8559 32.7178 22.1789 32.4568C22.5045 32.1923 22.8504 32.0217 23.2165 31.945C23.5922 31.87 23.9837 31.8801 24.3911 31.9755C24.8045 32.0699 25.1709 32.2354 25.4901 32.4721C26.0725 32.9039 26.4005 33.4926 26.4743 34.2382C26.9409 33.9151 27.4506 33.7653 28.0032 33.7888C28.555 33.8063 29.0729 33.9945 29.557 34.3534C30.192 34.8243 30.5626 35.4472 30.6688 36.2223C30.7391 36.6933 30.7022 37.1366 30.5582 37.5521C30.3874 37.9966 30.0969 38.4966 29.6868 39.0521L28.3123 40.9135ZM24.5836 36.2473L24.8678 35.8624C25.2053 35.4054 25.3519 34.9973 25.3077 34.6381C25.2626 34.2728 25.0436 33.9444 24.6506 33.6531C24.2683 33.3696 23.8984 33.2639 23.541 33.3362C23.1801 33.4059 22.8465 33.6481 22.5401 34.063L22.2209 34.4954L24.5836 36.2473ZM28.0671 38.8303L28.6278 38.071C29.038 37.5156 29.2303 37.0271 29.2049 36.6057C29.1724 36.1572 28.9754 35.799 28.6141 35.5311C28.2633 35.271 27.8712 35.1843 27.438 35.2711C27.0135 35.3534 26.5572 35.725 26.0692 36.3859L25.6097 37.0082L28.0671 38.8303Z" fill="white"></path>
<path d="M33.6299 22.706L30.5315 25.3228L32.0967 27.1837L35.1049 24.643L36.0288 25.7414L33.0206 28.2821L35.1974 30.8703L38.2958 28.2535L39.2197 29.3519L34.955 32.9537L28.4414 25.2093L32.706 21.6075L33.6299 22.706Z" fill="white"></path>
<path d="M46.2648 22.5208L42.4009 24.4724L42.5003 27.1768L41.0331 27.9179L40.664 16.0497L49.8073 23.4862L48.3167 24.2391L46.2648 22.5208ZM45.0642 21.5184L42.1787 19.1193L42.3226 22.9031L45.0642 21.5184Z" fill="white"></path>
<path d="M54.5616 17.8967L58.6022 21.3705L56.7871 21.803L53.0216 18.4389L52.7541 18.5026L53.7111 22.5359L52.2272 22.8895L49.8892 13.036L51.6278 12.6217C52.927 12.3122 53.9233 12.3333 54.6169 12.685C55.3829 13.0778 55.872 13.7209 56.084 14.6144C56.2495 15.3121 56.1923 15.9596 55.9123 16.5567C55.6324 17.1538 55.1821 17.6005 54.5616 17.8967ZM52.4467 17.2071L52.918 17.0948C54.3233 16.76 54.8982 16.0544 54.6428 14.978C54.4036 13.9697 53.6004 13.6284 52.2333 13.9541L51.7047 14.0801L52.4467 17.2071Z" fill="white"></path>
<path d="M74.4673 15.7863L78.7088 16.7969L79.6234 12.9423L81.1073 13.2958L78.7693 23.1493L77.2854 22.7958L78.3772 18.1945L74.1357 17.1839L73.0439 21.7852L71.56 21.4316L73.8981 11.5781L75.382 11.9317L74.4673 15.7863Z" fill="white"></path>
<path d="M89.9279 17.1087L85.3786 26.153L84.0166 25.4651L88.5659 16.4208L89.9279 17.1087Z" fill="white"></path>
<path d="M99.4987 23.5489L93.9089 30.1949L96.1813 32.1141L95.2574 33.2126L91.8187 30.3083L98.3324 22.5639L99.4987 23.5489Z" fill="white"></path>
<path d="M108.084 32.6755L101.112 37.8455L102.879 40.2395L101.727 41.094L99.052 37.4714L107.177 31.4469L108.084 32.6755Z" fill="white"></path>
<path d="M36.6508 100.802L35.243 100.507C35.3438 100.055 35.3582 99.7136 35.2863 99.4822C35.2197 99.2321 35.0594 98.9908 34.8051 98.7581C34.4929 98.4724 34.1528 98.3237 33.7846 98.312C33.4194 98.2971 33.1159 98.4214 32.8741 98.6849C32.5409 99.0481 32.5428 99.588 32.88 100.305L33.3448 101.289C33.7257 102.087 33.8939 102.79 33.8495 103.4C33.8081 104.007 33.5529 104.565 33.084 105.076C32.4559 105.761 31.7084 106.118 30.8415 106.146C29.9684 106.175 29.1908 105.877 28.5085 105.253C27.8616 104.661 27.5029 103.981 27.4322 103.212C27.368 102.45 27.6029 101.675 28.1369 100.886L29.5061 101.678C29.1566 102.162 28.9695 102.547 28.9449 102.832C28.8817 103.365 29.0721 103.835 29.5163 104.242C29.867 104.563 30.2659 104.712 30.7129 104.689C31.1599 104.667 31.5485 104.475 31.8788 104.115C32.0115 103.971 32.1115 103.82 32.1788 103.663C32.2522 103.505 32.2912 103.337 32.2957 103.158C32.3064 102.978 32.284 102.783 32.2285 102.573C32.1759 102.359 32.0931 102.127 31.9802 101.876L31.5351 100.919C30.9101 99.5543 30.978 98.4575 31.7389 97.6283C32.252 97.0691 32.8951 96.7973 33.6681 96.8129C34.4441 96.8254 35.1507 97.1232 35.7879 97.7063C36.6472 98.4926 36.9348 99.5245 36.6508 100.802Z" fill="white"></path>
<path d="M44.2516 105.503L40.1343 113.13L38.7915 112.407L42.9088 104.78L40.8629 103.679L41.5435 102.418L46.9723 105.342L46.2918 106.602L44.2516 105.503Z" fill="white"></path>
<path d="M52.1779 107.217L50.6876 113.113C50.475 113.954 50.4571 114.604 50.6339 115.062C50.9024 115.728 51.409 116.154 52.1539 116.342C52.903 116.531 53.5539 116.396 54.1065 115.938C54.4767 115.631 54.7696 115.05 54.9854 114.197L56.4757 108.3L57.9549 108.673L56.3621 114.975C56.1014 116.007 55.565 116.775 54.7529 117.281C53.8412 117.842 52.8584 117.99 51.8046 117.724C50.7507 117.459 49.9581 116.863 49.4266 115.938C48.9521 115.108 48.8452 114.177 49.1059 113.146L50.6987 106.844L52.1779 107.217Z" fill="white"></path>
<path d="M61.3864 119.155V109.059H63.5078C64.5249 109.059 65.328 109.159 65.9173 109.36C66.5502 109.556 67.1242 109.889 67.6393 110.36C68.6825 111.311 69.2042 112.56 69.2042 114.107C69.2042 115.659 68.6607 116.914 67.5738 117.874C67.0282 118.353 66.4564 118.687 65.8584 118.874C65.2997 119.061 64.5074 119.155 63.4816 119.155H61.3864ZM62.912 117.723H63.5995C64.2848 117.723 64.8544 117.651 65.3084 117.507C65.7623 117.355 66.1727 117.113 66.5393 116.782C67.2901 116.097 67.6655 115.206 67.6655 114.107C67.6655 113 67.2945 112.102 66.5524 111.413C65.8846 110.798 64.9003 110.491 63.5995 110.491H62.912V117.723Z" fill="white"></path>
<path d="M76.492 107.514L78.9662 117.303L77.487 117.676L75.0128 107.887L76.492 107.514Z" fill="white"></path>
<path d="M83.5323 110.672C82.8569 109.421 82.736 108.099 83.1695 106.707C83.5991 105.317 84.4556 104.276 85.7388 103.585C87.0067 102.902 88.3385 102.77 89.7341 103.187C91.1336 103.602 92.1762 104.445 92.8619 105.715C93.5517 106.992 93.6798 108.323 93.246 109.705C92.8104 111.094 91.9433 112.138 90.6447 112.837C89.4959 113.456 88.2499 113.614 86.9067 113.312C85.4256 112.975 84.3008 112.095 83.5323 110.672ZM84.8959 109.96C85.4262 110.942 86.1927 111.572 87.1954 111.849C88.1942 112.128 89.1239 112.036 89.9846 111.573C90.9182 111.07 91.5318 110.324 91.8254 109.334C92.1148 108.336 92.0068 107.369 91.5013 106.433C90.9896 105.485 90.2438 104.861 89.2639 104.562C88.2858 104.256 87.3319 104.354 86.4021 104.855C85.4761 105.353 84.8683 106.097 84.5785 107.085C84.2846 108.065 84.3904 109.024 84.8959 109.96Z" fill="white"></path>
<path d="M97.8289 96.5644L97.412 97.9392C96.9701 97.7997 96.6306 97.7555 96.3936 97.8069C96.1383 97.8513 95.8835 97.9899 95.6293 98.2225C95.3171 98.5082 95.1392 98.8337 95.0954 99.1989C95.0487 99.561 95.1462 99.8737 95.388 100.137C95.7213 100.5 96.2599 100.546 97.0041 100.273L98.0262 99.896C98.8553 99.5865 99.5721 99.4805 100.176 99.5778C100.778 99.6719 101.313 99.9745 101.782 100.486C102.41 101.17 102.701 101.945 102.653 102.81C102.606 103.681 102.241 104.429 101.559 105.053C100.912 105.645 100.202 105.943 99.43 105.946C98.6639 105.943 97.9109 105.642 97.1709 105.042L98.0802 103.749C98.5327 104.139 98.9 104.359 99.1821 104.408C99.7087 104.517 100.194 104.369 100.638 103.962C100.989 103.641 101.173 103.257 101.189 102.811C101.205 102.364 101.049 101.961 100.718 101.601C100.586 101.456 100.444 101.344 100.293 101.263C100.142 101.176 99.9776 101.123 99.7993 101.103C99.6213 101.076 99.4248 101.082 99.21 101.119C98.9923 101.152 98.7533 101.214 98.4929 101.305L97.4994 101.664C96.084 102.167 94.9959 102.004 94.2351 101.175C93.722 100.615 93.5069 99.9519 93.5899 99.1842C93.67 98.4132 94.0286 97.7362 94.6658 97.1531C95.5251 96.3667 96.5794 96.1705 97.8289 96.5644Z" fill="white"></path>
<path d="M61.3156 46.8943C57.2574 38.5765 46.737 43.5632 48.4207 52.2639C45.463 57.0326 47.3092 61.1469 44.8828 69.5337C41.5899 78.0131 39.608 81.8239 34.439 86.9404C47.4648 85.057 52.8416 77.3064 63.503 77.3064C74.592 77.3064 76.4336 82.5232 94.5819 86.9404C90.73 85.8644 86.6395 83.0234 83.8769 80.8747C81.2644 78.8428 81.3808 77.4773 81.5769 76.2968C81.7682 74.0367 84.0666 72.7743 88.8558 70.5241C92.9282 68.0348 94.7159 66.1021 95.3107 59.8444C95.775 56.7901 93.7888 55.5711 89.0444 54.8877C84.3001 54.2042 82.514 53.3833 80.2296 50.8957C77.2854 47.3921 71.7328 47.1646 70.2255 47.0018C67.6107 46.7996 66.5693 46.6206 61.3156 46.8943Z" fill="white" stroke="white" stroke-linejoin="round"></path>
<circle cx="73.3525" cy="56.079" r="2.11029" fill="black"></circle>
</svg>