<svg width="36" height="36" viewBox="0 0 36 36" fill="none" xmlns="http://www.w3.org/2000/svg">
<g clip-path="url(#clip0_5_200)">
<path d="M24.7387 0C25.1687 0 25.5987 0 26.0286 0.00242901C26.3908 0.00464387 26.7529 0.00882751 27.115 0.018601C27.904 0.0399235 28.6999 0.0864181 29.4801 0.226658C30.2716 0.368937 31.0083 0.601181 31.7275 0.967267C32.4344 1.32709 33.0812 1.79717 33.642 2.35801C34.2027 2.91878 34.6728 3.56546 35.0326 4.27222C35.3989 4.99173 35.6312 5.72883 35.7735 6.5208C35.9136 7.30073 35.9601 8.09632 35.9814 8.88499C35.9912 9.24709 35.9954 9.60918 35.9976 9.97137C36 10.4013 36 10.8313 36 11.2613V24.7387C36 25.1687 36 25.5987 35.9976 26.0286C35.9954 26.3908 35.9912 26.7529 35.9814 27.115C35.9601 27.9037 35.9136 28.6993 35.7735 29.4792C35.6312 30.2712 35.3989 31.0083 35.0326 31.7278C34.6728 32.4346 34.2027 33.0812 33.642 33.642C33.0812 34.2028 32.4344 34.6729 31.7275 35.0327C31.0083 35.3988 30.2716 35.631 29.4801 35.7733C28.6999 35.9136 27.904 35.9601 27.115 35.9814C26.7529 35.9912 26.3908 35.9954 26.0286 35.9976C25.5987 36 25.1687 36 24.7387 36H11.2613C10.8313 36 10.4013 36 9.97135 35.9976C9.60917 35.9954 9.24707 35.9912 8.88498 35.9814C8.09599 35.9601 7.30012 35.9136 6.51989 35.7733C5.72835 35.631 4.99166 35.3988 4.27252 35.0327C3.56564 34.6729 2.91883 34.2028 2.35801 33.642C1.79726 33.0812 1.32722 32.4346 0.967408 31.7278C0.601094 31.0083 0.368779 30.2712 0.2265 29.4792C0.0863654 28.6993 0.039906 27.9037 0.0186011 27.115C0.00880994 26.7529 0.0046263 26.3908 0.00242901 26.0286C0 25.5987 0 25.1687 0 24.7387V11.2613C0 10.8313 0 10.4013 0.00242901 9.97137C0.0046263 9.60918 0.00880994 9.24709 0.0186011 8.88499C0.039906 8.09632 0.0863654 7.30073 0.2265 6.5208C0.368779 5.72883 0.601094 4.99173 0.967408 4.27222C1.32722 3.56546 1.79726 2.91878 2.35801 2.35801C2.91883 1.79717 3.56564 1.32709 4.27252 0.967267C4.99166 0.601181 5.72835 0.368937 6.51989 0.226658C7.30012 0.0864181 8.09599 0.0399235 8.88498 0.018601C9.24707 0.00882751 9.60917 0.00464387 9.97135 0.00242901C10.4013 0 10.8313 0 11.2613 0H24.7387ZM24.0062 8.26172C21.9014 8.26172 19.9355 9.07411 18.803 10.5493C18.6214 10.7951 18.6 10.8699 18.6 11.1265V26.5727C18.6 26.8185 18.7709 26.9789 18.9846 26.9789C19.1022 26.9789 19.2304 26.9361 19.3372 26.8399C20.3629 25.9527 21.9014 25.2365 23.7177 25.2365C25.5874 25.2365 27.4465 25.8244 28.75 27.0109C28.9209 27.1606 29.1025 27.2461 29.3376 27.2461C29.7543 27.2461 30 26.9895 30 26.6047V11.7572C30 11.4258 29.9893 11.2975 29.8718 11.1051C28.7713 9.2879 26.3246 8.26172 24.0062 8.26172ZM11.9938 8.26172C9.67535 8.26172 7.22868 9.2879 6.12821 11.1051C6.01068 11.2975 6 11.4258 6 11.7572V26.6047C6 26.9895 6.24574 27.2461 6.66242 27.2461C6.89747 27.2461 7.0791 27.1606 7.25005 27.0109C8.55351 25.8244 10.4126 25.2365 12.2823 25.2365C14.0986 25.2365 15.6371 25.9527 16.6628 26.8399C16.7696 26.9361 16.8978 26.9789 17.0154 26.9789C17.2291 26.9789 17.4 26.8185 17.4 26.5727V11.1265C17.4 10.8699 17.3786 10.7951 17.197 10.5493C16.0645 9.07411 14.0986 8.26172 11.9938 8.26172Z" fill="#F6EBDA"/>
</g>
<defs>
<clipPath id="clip0_5_200">
<rect width="36" height="36" fill="white"/>
</clipPath>
</defs>
</svg>
