<svg width="36" height="36" viewBox="0 0 36 36" fill="none" xmlns="http://www.w3.org/2000/svg">
<path fill-rule="evenodd" clip-rule="evenodd" d="M12.6789 19.9278C13.6307 19.2677 14.7328 18.8879 15.9092 18.8879C17.8427 18.8879 19.5788 19.9109 20.7701 21.5326L23.3266 19.9538C22.1522 18.2919 20.2017 17.2049 17.9938 17.2049C15.7983 17.2049 13.8572 18.281 12.6789 19.9278ZM36 14.8851L17.9996 25.9977L0 14.8851V17.8864L17.9996 29L36 17.8864V14.8851ZM8.2986 17.242L8.2826 17.2402C10.3742 14.1433 13.9425 12.1029 17.9938 12.1029C22.0487 12.1029 25.6198 14.1469 27.7085 17.2476L25.0581 18.8841C21.0746 13.64 13.7827 12.7312 8.73085 16.8689C8.5835 16.9904 8.43974 17.1147 8.2986 17.242ZM29.3135 16.1767C23.7271 8.4801 13.2392 6.92601 5.82818 12.7233C5.18066 13.2292 4.45923 13.9553 3.90207 14.5353C6.93488 9.97272 12.1747 7.00035 17.994 7.00035C23.8961 7.00035 29.089 10.0025 32.0936 14.5446L29.3502 16.2334L29.3135 16.1767Z" fill="#F6EBDA"/>
</svg>
