<svg width="36" height="36" viewBox="0 0 36 36" fill="none" xmlns="http://www.w3.org/2000/svg">
<g clip-path="url(#clip0_5_199)">
<path d="M18 0.5625C8.06371 0.5625 0 8.37422 0 18C0 27.6258 8.06371 35.4375 18 35.4375C27.9363 35.4375 36 27.6258 36 18C36 8.37422 27.9363 0.5625 18 0.5625Z" fill="#F6EBDA"/>
<path d="M29.5112 16.2492C29.1338 16.2492 28.9015 16.1578 28.5749 15.975C23.4072 12.9867 14.1676 12.2695 8.18699 13.8867C7.9257 13.957 7.59909 14.0695 7.2507 14.0695C6.29264 14.0695 5.55957 13.3453 5.55957 12.4101C5.55957 11.4539 6.16925 10.9125 6.82247 10.7296C9.37731 10.0054 12.237 9.66089 15.3507 9.66089C20.6491 9.66089 26.2015 10.7296 30.2588 13.0218C30.8249 13.3382 31.1951 13.7742 31.1951 14.6109C31.1951 15.5671 30.3967 16.2492 29.5112 16.2492ZM27.2612 21.607C26.8838 21.607 26.6297 21.4453 26.3684 21.3117C21.8321 18.7101 15.0676 17.6625 9.0507 19.2445C8.70231 19.3359 8.5136 19.4273 8.18699 19.4273C7.41038 19.4273 6.77893 18.8156 6.77893 18.0632C6.77893 17.3109 7.15634 16.8117 7.90393 16.6078C9.92167 16.0593 11.983 15.6515 15.0023 15.6515C19.7128 15.6515 24.2636 16.7835 27.8491 18.8507C28.437 19.1882 28.6692 19.6242 28.6692 20.2359C28.662 20.9953 28.0523 21.607 27.2612 21.607ZM25.3088 26.2195C25.0039 26.2195 24.8152 26.1281 24.5322 25.9664C20.0031 23.3226 14.7338 23.2101 9.52973 24.2437C9.24667 24.314 8.87651 24.4265 8.66602 24.4265C7.96199 24.4265 7.51925 23.8851 7.51925 23.3156C7.51925 22.5914 7.96199 22.2468 8.50634 22.1343C14.4507 20.8617 20.5257 20.9742 25.708 23.9765C26.1507 24.2507 26.412 24.4968 26.412 25.1367C26.412 25.7765 25.8967 26.2195 25.3088 26.2195Z" fill="black"/>
</g>
<defs>
<clipPath id="clip0_5_199">
<rect width="36" height="36" fill="white"/>
</clipPath>
</defs>
</svg>
